<svg width="2611" height="2610" viewBox="0 0 2611 2610" fill="none" xmlns="http://www.w3.org/2000/svg">
<path d="M123.997 1384.6C163.794 1981.08 645.331 2456.66 1244.34 2487.05V2609.2C577.935 2578.56 41.8643 2048.49 1.74707 1384.6H123.997ZM2608.93 1384.6C2568.81 2048.49 2032.74 2578.56 1366.34 2609.2V2487.05C1965.34 2456.66 2446.88 1981.08 2486.68 1384.6H2608.93ZM1366.34 0C2045.41 31.2218 2589.14 581.044 2610.67 1262.6H2488.61C2467.19 648.432 1978.01 153.186 1366.34 122.144V0ZM1244.34 122.144C632.664 153.186 143.481 648.432 122.068 1262.6H0C21.5326 581.045 565.268 31.2223 1244.34 0V122.144Z" fill="white"/>
<path d="M582.317 672.011L614.566 680.171L646.856 707.409L681.922 752.462L699.439 782.47L706.155 802.865L708.853 857.462L706.153 932.626L665.631 1416.65L622.407 1891.11L622.406 1891.12V1891.13L618.354 1969.07L618.352 1969.1L618.354 1969.13L621.056 2004.68L621.063 2004.79L621.114 2004.88L645.428 2050L645.462 2050.07L645.513 2050.12L673.878 2078.83L673.938 2078.89L674.017 2078.93L730.748 2106.27L730.79 2106.29L730.835 2106.31L771.357 2117.25L771.422 2117.26H806.641L806.674 2117.26L867.458 2109.05L867.522 2109.05L867.583 2109.02L1753.67 1739.85L1795.54 1723.44L1795.54 1723.44L1853.61 1700.2L1887.38 1687.9L1887.38 1687.89L1929.17 1672.89H1988.47L2028.85 1679.7L2063.83 1702.85L2096.16 1738.3L2123.11 1794.23L2131.19 1840.61V1902.05L2123.1 1947.09L2113.66 1977.12L2096.11 2020.86L2077.23 2063.18L2061.2 2085.49C1867.24 2282.15 1600.39 2403.6 1305.84 2403.6C712.959 2403.6 232.337 1911.56 232.337 1304.6C232.337 1120.91 276.357 947.744 354.188 795.559L361.254 785.307L386.876 758.006L421.96 725.223L457.01 699.296L497.46 682.917L531.133 672.011H582.317ZM1305.84 205.6C1898.71 205.6 2379.34 697.639 2379.34 1304.6C2379.34 1308.53 2379.31 1312.45 2379.27 1316.36L2376.68 1294.95L2376.67 1294.93L2376.67 1294.92L2367.22 1242.96L2367.21 1242.94L2367.21 1242.93L2359.11 1210.11L2359.1 1210.09L2359.09 1210.07L2341.53 1159.48L2341.52 1159.45L2341.51 1159.43L2325.3 1125.25L2325.27 1125.17L2325.21 1125.11L2299.54 1099.13L2299.49 1099.07L2299.42 1099.04L2265.65 1081.26L2265.58 1081.22L2265.5 1081.21L2231.73 1075.74L2231.65 1075.73L2231.57 1075.74L2191.04 1082.58L2190.98 1082.59L2190.93 1082.62L1664.14 1315.06L1472.38 1397.08L1413.04 1409.36H1363.19L1322.84 1397.11L1289.21 1368.51L1271.74 1339.94L1265.01 1308.62L1263.66 1273.11V1237.63L1271.75 1199.4L1271.76 1199.39L1289.32 1106.41L1289.32 1106.41L1390.62 538.969L1390.63 538.926V490.977L1390.62 490.929L1381.17 443.072L1381.16 443.046L1381.15 443.021L1373.05 417.041L1373.02 416.959L1372.97 416.89L1347.31 382.707L1347.22 382.596L1347.1 382.544L1326.83 374.34L1326.82 374.336L1305.21 366.132L1305.13 366.1H1253.66L1253.61 366.109L1211.74 374.312L1211.73 374.314L1211.72 374.317L1142.83 390.724L1065.84 408.499L1065.83 408.502L964.521 434.481L964.511 434.483L964.5 434.487L883.474 459.093L815.944 475.499L815.938 475.501L747.062 493.272L664.674 512.413L587.682 528.821L587.656 528.826L587.631 528.835L526.591 548.694C722.23 337.39 999 205.6 1305.84 205.6Z" fill="white"/>
</svg>
